<svg width="32" height="21" viewBox="0 0 32 21" fill="none" xmlns="http://www.w3.org/2000/svg">
<g clip-path="url(#clip0_841_1560)">
<path d="M9.04336 7.64975C9.04336 8.07602 9.08523 8.42164 9.15849 8.6751C9.24222 8.92855 9.34689 9.20505 9.49342 9.50459C9.54575 9.59675 9.56668 9.68892 9.56668 9.76957C9.56668 9.88477 9.50389 9.99998 9.36782 10.1152L8.70843 10.5991C8.61423 10.6682 8.52003 10.7027 8.4363 10.7027C8.33164 10.7027 8.22697 10.6451 8.12231 10.5415C7.97578 10.3686 7.85018 10.1843 7.74551 9.99998C7.64085 9.80413 7.53618 9.58523 7.42105 9.32026C6.60466 10.3802 5.57894 10.9101 4.3439 10.9101C3.46471 10.9101 2.76345 10.6336 2.2506 10.0806C1.73774 9.52763 1.47607 8.7903 1.47607 7.86864C1.47607 6.88938 1.79007 6.09445 2.42853 5.49537C3.06698 4.89629 3.91477 4.59676 4.99282 4.59676C5.34868 4.59676 5.71501 4.63132 6.10227 4.68892C6.48953 4.74652 6.88726 4.83869 7.30592 4.94238V4.10136C7.30592 3.22579 7.13845 2.61519 6.81399 2.25805C6.47906 1.9009 5.91387 1.72809 5.10795 1.72809C4.74162 1.72809 4.36483 1.77417 3.97757 1.87786C3.59031 1.98155 3.21351 2.10828 2.84719 2.26957C2.67972 2.35021 2.55412 2.39629 2.48086 2.41934C2.40759 2.44238 2.35526 2.4539 2.31339 2.4539C2.16686 2.4539 2.0936 2.33869 2.0936 2.09675V1.53224C2.0936 1.34791 2.11453 1.20966 2.16686 1.12901C2.2192 1.04837 2.31339 0.967723 2.45993 0.887078C2.82625 0.679704 3.26585 0.506893 3.77871 0.368644C4.29156 0.218875 4.83582 0.14975 5.41148 0.14975C6.657 0.14975 7.56758 0.46081 8.15371 1.08293C8.72936 1.70505 9.02243 2.64975 9.02243 3.91703V7.64975H9.04336ZM4.79396 9.4009C5.13935 9.4009 5.49521 9.33178 5.87201 9.19353C6.2488 9.05528 6.58373 8.80182 6.86633 8.4562C7.03379 8.23731 7.15939 7.99537 7.22219 7.71887C7.28499 7.44238 7.32685 7.10828 7.32685 6.71657V6.2327C7.02332 6.15205 6.69886 6.08293 6.36393 6.03685C6.029 5.99076 5.70454 5.96772 5.38008 5.96772C4.67883 5.96772 4.16597 6.11749 3.82057 6.42855C3.47518 6.73961 3.30771 7.1774 3.30771 7.75344C3.30771 8.29491 3.43331 8.69814 3.69497 8.97464C3.94617 9.26265 4.3125 9.4009 4.79396 9.4009ZM13.1986 10.6451C13.0102 10.6451 12.8846 10.6106 12.8008 10.5299C12.7171 10.4608 12.6438 10.2995 12.581 10.0806L10.1214 1.1751C10.0586 0.944681 10.0272 0.794912 10.0272 0.714267C10.0272 0.529935 10.1109 0.426248 10.2784 0.426248H11.3041C11.503 0.426248 11.6391 0.46081 11.7123 0.541455C11.7961 0.61058 11.8588 0.77187 11.9216 0.990764L13.68 8.61749L15.3128 0.990764C15.3651 0.76035 15.4279 0.61058 15.5117 0.541455C15.5954 0.472331 15.7419 0.426248 15.9303 0.426248H16.7676C16.9665 0.426248 17.1026 0.46081 17.1863 0.541455C17.27 0.61058 17.3433 0.77187 17.3852 0.990764L19.0389 8.70966L20.8496 0.990764C20.9124 0.76035 20.9856 0.61058 21.0589 0.541455C21.1426 0.472331 21.2787 0.426248 21.4671 0.426248H22.4405C22.608 0.426248 22.7021 0.518414 22.7021 0.714267C22.7021 0.77187 22.6917 0.829474 22.6812 0.898598C22.6708 0.967723 22.6498 1.05989 22.608 1.18662L20.0855 10.0921C20.0227 10.3226 19.9495 10.4723 19.8657 10.5415C19.782 10.6106 19.6459 10.6567 19.468 10.6567H18.5679C18.369 10.6567 18.233 10.6221 18.1492 10.5415C18.0655 10.4608 17.9922 10.311 17.9504 10.0806L16.328 2.64975L14.7162 10.0691C14.6639 10.2995 14.6011 10.4493 14.5173 10.5299C14.4336 10.6106 14.2871 10.6451 14.0987 10.6451H13.1986ZM26.648 10.9562C26.1038 10.9562 25.5595 10.8871 25.0362 10.7488C24.5129 10.6106 24.1047 10.4608 23.8325 10.288C23.6651 10.1843 23.5499 10.0691 23.5081 9.96542C23.4662 9.86173 23.4453 9.74652 23.4453 9.64284V9.05528C23.4453 8.81334 23.529 8.69814 23.686 8.69814C23.7488 8.69814 23.8116 8.70966 23.8744 8.7327C23.9372 8.75574 24.0314 8.80182 24.1361 8.84791C24.4919 9.02072 24.8792 9.15897 25.2874 9.25113C25.706 9.3433 26.1142 9.38938 26.5329 9.38938C27.1923 9.38938 27.7051 9.26265 28.061 9.0092C28.4169 8.75574 28.6053 8.38708 28.6053 7.91473C28.6053 7.59215 28.5111 7.32717 28.3227 7.10828C28.1343 6.88938 27.7784 6.69353 27.2655 6.5092L25.7479 5.99076C24.9838 5.72579 24.4187 5.33408 24.0733 4.81565C23.7279 4.30874 23.5499 3.74422 23.5499 3.14514C23.5499 2.66127 23.6441 2.235 23.8325 1.86634C24.0209 1.49768 24.2721 1.1751 24.5861 0.92164C24.9001 0.656663 25.256 0.46081 25.6746 0.322561C26.0933 0.184313 26.5329 0.126709 26.9934 0.126709C27.2237 0.126709 27.4644 0.13823 27.6947 0.172792C27.9354 0.207354 28.1552 0.253437 28.375 0.29952C28.5843 0.357124 28.7832 0.414727 28.9716 0.483852C29.16 0.552976 29.3065 0.622101 29.4112 0.691225C29.5577 0.783391 29.6624 0.875557 29.7252 0.979244C29.788 1.07141 29.8194 1.19814 29.8194 1.35943V1.9009C29.8194 2.14284 29.7356 2.26957 29.5786 2.26957C29.4949 2.26957 29.3588 2.22348 29.1809 2.13132C28.5843 1.83178 27.9145 1.68201 27.1713 1.68201C26.5748 1.68201 26.1038 1.78569 25.7793 2.00459C25.4548 2.22348 25.2874 2.55758 25.2874 3.02993C25.2874 3.35252 25.392 3.62901 25.6014 3.84791C25.8107 4.0668 26.198 4.2857 26.7527 4.48155L28.2389 4.99998C28.9925 5.26496 29.5368 5.63362 29.8612 6.10597C30.1857 6.57832 30.3427 7.1198 30.3427 7.71887C30.3427 8.21427 30.2485 8.66357 30.0706 9.05528C29.8822 9.44698 29.631 9.79261 29.3065 10.0691C28.9821 10.3571 28.5948 10.5645 28.1447 10.7143C27.6737 10.8756 27.1818 10.9562 26.648 10.9562Z" fill="white"/>
<path fill-rule="evenodd" clip-rule="evenodd" d="M28.6261 16.5553C25.1826 19.3548 20.1797 20.841 15.8779 20.841C9.84921 20.841 4.41709 18.3871 0.31422 14.3087C-0.0102414 13.9862 0.282821 13.5484 0.670082 13.8018C5.10788 16.6359 10.5819 18.3525 16.2442 18.3525C20.0645 18.3525 24.2616 17.4769 28.1237 15.6797C28.6994 15.3917 29.1913 16.0945 28.6261 16.5553Z" fill="#FF9900"/>
<path fill-rule="evenodd" clip-rule="evenodd" d="M30.0602 14.7581C29.6206 14.136 27.1505 14.4585 26.0306 14.6083C25.6956 14.6544 25.6433 14.3318 25.9468 14.0899C27.9145 12.5691 31.1487 13.0069 31.5255 13.5138C31.9023 14.0323 31.4208 17.5922 29.5787 19.2972C29.2961 19.5622 29.024 19.424 29.1496 19.0783C29.5683 17.9378 30.4998 15.3687 30.0602 14.7581Z" fill="#FF9900"/>
</g>
<defs>
<clipPath id="clip0_841_1560">
<rect width="31.8182" height="20.9677" fill="white"/>
</clipPath>
</defs>
</svg>
