<svg width="37" height="37" viewBox="0 0 37 37" fill="none" xmlns="http://www.w3.org/2000/svg">
<g clip-path="url(#clip0_841_1597)">
<path fill-rule="evenodd" clip-rule="evenodd" d="M37 0L33.6295 33.2964L18.4778 37L3.36705 33.3024L0 0H37Z" fill="#E44D26"/>
<path fill-rule="evenodd" clip-rule="evenodd" d="M18.4985 34.1696L30.7442 31.1766L33.6229 2.72202H18.4985V34.1696Z" fill="#F16529"/>
<path fill-rule="evenodd" clip-rule="evenodd" d="M11.9485 10.891H18.5016V6.80801H6.88428L6.99355 7.90404L8.1307 19.1594H18.4948V15.0734H12.372L11.9485 10.891ZM12.99 21.2009H8.34242L8.99125 27.6145L18.4811 29.936L18.5016 29.93V25.6814L18.4811 25.6874L13.3213 24.4589L12.99 21.2009Z" fill="#EBEBEB"/>
<path fill-rule="evenodd" clip-rule="evenodd" d="M18.4849 19.1594H24.1877L23.6515 24.4559L18.4849 25.6844V29.933L27.9816 27.6115L28.0499 26.922L29.1392 16.1694L29.2519 15.0734H18.4849V19.1594ZM18.4849 10.882V10.891H29.6719L29.7641 9.97267L29.9759 7.90105L30.0851 6.80502H18.4849V10.882Z" fill="white"/>
</g>
<defs>
<clipPath id="clip0_841_1597">
<rect width="37" height="37" fill="white"/>
</clipPath>
</defs>
</svg>
