<svg width="25" height="25" viewBox="0 0 25 25" fill="none" xmlns="http://www.w3.org/2000/svg">
<g clip-path="url(#clip0_749_45)">
<path d="M14.7203 0C14.5395 0 14.3716 0.0388908 14.2167 0.0907424C14.546 0.311116 14.7267 0.602791 14.8171 0.933352C14.8236 0.978722 14.8365 1.01113 14.843 1.0565C14.8494 1.09539 14.8559 1.13428 14.8559 1.17317C14.8817 1.74355 14.7074 1.81485 14.5847 2.15189C14.3975 2.58616 14.4491 3.05284 14.6751 3.42877C14.6945 3.47414 14.7203 3.52599 14.7526 3.57137C14.5072 1.93152 15.8695 1.68522 16.1213 1.17317C16.1407 0.72594 15.7727 0.427786 15.4821 0.220374C15.2045 0.051853 14.9527 0 14.7203 0ZM16.7734 0.369452C16.7476 0.518528 16.7669 0.479639 16.7605 0.557419C16.754 0.609271 16.754 0.674088 16.7476 0.72594C16.7347 0.777793 16.7217 0.829645 16.7024 0.8815C16.6895 0.933352 16.6701 0.985205 16.6507 1.03706C16.6249 1.08891 16.6055 1.13428 16.5797 1.18613C16.5603 1.21207 16.5474 1.23799 16.5281 1.26391C16.5152 1.28336 16.5022 1.3028 16.4893 1.32225C16.4571 1.36762 16.4248 1.41299 16.3925 1.45188C16.3537 1.49077 16.3215 1.53614 16.2763 1.56855V1.57504C16.2375 1.60745 16.1988 1.64634 16.1536 1.67874C16.018 1.78245 15.8631 1.86023 15.721 1.95745C15.6758 1.98986 15.6306 2.01579 15.5919 2.05468C15.5467 2.08709 15.508 2.11949 15.4692 2.15838C15.424 2.19727 15.3918 2.23616 15.353 2.28154C15.3207 2.32043 15.282 2.3658 15.2562 2.41117C15.2239 2.45654 15.1916 2.50191 15.1658 2.54728C15.14 2.59913 15.1206 2.6445 15.0948 2.69636C15.0754 2.74821 15.056 2.79358 15.0431 2.84543C15.0238 2.90377 15.0108 2.95562 14.9979 3.00748C14.9915 3.03341 14.9915 3.06581 14.985 3.09174C14.9786 3.11767 14.9785 3.14359 14.9721 3.16952C14.9721 3.22137 14.9657 3.2797 14.9657 3.33155C14.9657 3.37044 14.9657 3.40933 14.9721 3.44822C14.9721 3.50008 14.9786 3.55193 14.9915 3.61026C14.998 3.66212 15.0109 3.71397 15.0238 3.76582C15.0431 3.81768 15.0561 3.86953 15.0754 3.92138C15.0883 3.95379 15.1077 3.9862 15.1206 4.01212L13.6357 3.43526C13.3839 3.36396 13.1385 3.29915 12.8867 3.24081C12.7512 3.20841 12.6156 3.176 12.48 3.14359C12.0926 3.06581 11.6988 3.00748 11.305 2.96859C11.2921 2.96859 11.2856 2.9621 11.2727 2.9621C10.8853 2.92321 10.5044 2.90376 10.117 2.90376C9.83292 2.90376 9.54884 2.91671 9.27122 2.93617C8.87739 2.96211 8.48355 3.01395 8.08972 3.07876C7.99287 3.09172 7.89603 3.11117 7.79918 3.13062C7.59904 3.16951 7.40535 3.21488 7.21812 3.26025C7.12128 3.28619 7.02443 3.3121 6.92759 3.33803C6.83074 3.37692 6.74036 3.42229 6.64997 3.46118C6.57895 3.49359 6.50793 3.52599 6.43691 3.5584C6.42401 3.5649 6.41107 3.5649 6.40463 3.57136C6.34006 3.60377 6.28196 3.62969 6.22385 3.6621C6.20448 3.66859 6.19157 3.67505 6.17866 3.68155C6.10764 3.71395 6.03662 3.75284 5.97851 3.78525C5.93332 3.80469 5.88813 3.83062 5.84939 3.85007C5.83002 3.86302 5.80419 3.876 5.79128 3.88247C5.73317 3.91488 5.67507 3.94729 5.62342 3.9797C5.56531 4.01211 5.51366 4.04451 5.46846 4.07692C5.42327 4.10933 5.37808 4.13526 5.33934 4.16766C5.33287 4.17415 5.32644 4.17415 5.31997 4.18062C5.28123 4.20655 5.23604 4.23895 5.1973 4.27136C5.1973 4.27136 5.19083 4.27785 5.1844 4.28431C5.15212 4.31025 5.11984 4.33617 5.08755 4.36209C5.07465 4.36858 5.06172 4.38154 5.04882 4.38803C5.01654 4.41396 4.98426 4.44636 4.95197 4.47229C4.94551 4.48524 4.93261 4.49174 4.92614 4.49823C4.8874 4.53712 4.84866 4.56952 4.80992 4.60841C4.80346 4.60841 4.80346 4.61491 4.79702 4.62137C4.75828 4.65377 4.71955 4.69266 4.68081 4.73155C4.67434 4.73805 4.67434 4.74451 4.66791 4.74451C4.63563 4.77691 4.60334 4.80933 4.57106 4.84821C4.55816 4.86117 4.53878 4.87415 4.52587 4.8871C4.49359 4.92599 4.45485 4.96488 4.41611 5.00377C4.40964 5.01672 4.39674 5.02322 4.39028 5.03618C4.33863 5.08803 4.29343 5.13989 4.24178 5.19174C4.23531 5.19823 4.22888 5.20469 4.22241 5.21118C4.11911 5.32137 4.00935 5.43156 3.89314 5.52878C3.77693 5.63249 3.65426 5.72971 3.53159 5.81397C3.40246 5.90472 3.27979 5.98249 3.14421 6.06027C3.01509 6.13157 2.8795 6.19639 2.73747 6.25472C2.60188 6.31306 2.45985 6.36491 2.31781 6.41028C2.04664 6.46861 1.76902 6.5788 1.53014 6.59825C1.47849 6.59825 1.42038 6.6112 1.36873 6.61769C1.31063 6.63064 1.25898 6.64363 1.20733 6.65658C1.15568 6.67602 1.10402 6.69547 1.05237 6.71491C1.00072 6.73436 0.949075 6.76029 0.897425 6.78621C0.85223 6.81862 0.80058 6.84455 0.755385 6.87695C0.710192 6.90936 0.664997 6.94825 0.626259 6.98714C0.581067 7.01955 0.535872 7.06492 0.497133 7.10381C0.458395 7.14918 0.419657 7.18807 0.387377 7.23344C0.355096 7.28529 0.316358 7.33067 0.290532 7.38252C0.258251 7.42789 0.22597 7.47974 0.200144 7.53159C0.174309 7.58993 0.148494 7.64178 0.129125 7.70012C0.109756 7.75197 0.0903873 7.81031 0.0710183 7.86864C0.0581158 7.92049 0.0451829 7.97235 0.0387377 8.0242C0.0387377 8.0307 0.0322715 8.03715 0.0322715 8.04364C0.0193689 8.10198 0.0193689 8.17976 0.0129024 8.21865C0.00643618 8.26402 0 8.30291 0 8.34828C0 8.37422 0 8.40661 0.00646622 8.43254C0.0129324 8.47791 0.0193686 8.5168 0.0323017 8.5557C0.0452042 8.59458 0.0581371 8.63347 0.077494 8.67236V8.67885C0.096863 8.71774 0.122689 8.75663 0.148513 8.79552C0.174348 8.83441 0.200165 8.8733 0.232446 8.91219C0.264727 8.9446 0.303465 8.98349 0.342203 9.0159C0.380941 9.05479 0.419679 9.08719 0.464871 9.1196C0.619823 9.25572 0.658561 9.30109 0.858706 9.40479C0.890986 9.42424 0.92327 9.4372 0.962008 9.45665C0.968475 9.45665 0.974911 9.46314 0.981377 9.46314C0.981377 9.47609 0.981377 9.48258 0.987844 9.49555C0.994311 9.5474 1.00721 9.59925 1.02012 9.6511C1.03303 9.70944 1.05241 9.76129 1.07178 9.80666C1.09115 9.84555 1.10406 9.88444 1.12343 9.92333C1.12989 9.93629 1.13633 9.94927 1.1428 9.95574C1.16863 10.0076 1.19445 10.053 1.22027 10.0983C1.25255 10.1437 1.28483 10.1891 1.31711 10.2345C1.3494 10.2733 1.38813 10.3187 1.42687 10.3576C1.46561 10.3965 1.50435 10.4289 1.54954 10.4678C1.54954 10.4678 1.55601 10.4743 1.56244 10.4743C1.60118 10.5067 1.63992 10.5391 1.67866 10.565C1.72385 10.5974 1.76905 10.6234 1.8207 10.6493C1.86589 10.6752 1.91754 10.7011 1.96919 10.7206C2.00793 10.74 2.05312 10.753 2.09832 10.766C2.10478 10.7725 2.11122 10.7725 2.12415 10.7789C2.14999 10.7854 2.18226 10.7919 2.20808 10.7984C2.18871 11.1484 2.18225 11.4789 2.23392 11.5956C2.29202 11.7252 2.5761 11.3298 2.86018 10.8761C2.82144 11.3234 2.79561 11.8484 2.86018 12.0039C2.9312 12.166 3.31857 11.6604 3.6543 11.103C8.23181 10.04 12.409 13.216 12.8481 17.7013C12.7641 17.0013 11.9054 16.6124 11.5116 16.7096C11.3179 17.1892 10.9886 17.805 10.4592 18.1874C10.5044 17.7596 10.4851 17.3189 10.3947 16.8911C10.2526 17.4874 9.97501 18.0448 9.59409 18.5244C8.98074 18.5698 8.36739 18.2716 8.04457 17.8244C8.01874 17.805 8.01229 17.7661 7.99292 17.7402C7.97355 17.6948 7.95419 17.6494 7.94127 17.604C7.92191 17.5587 7.90899 17.5133 7.90254 17.4679C7.89607 17.4226 7.89607 17.3772 7.89607 17.3253C7.89607 17.2929 7.89607 17.2605 7.89607 17.2281C7.90254 17.1827 7.91544 17.1374 7.92835 17.092C7.94125 17.0466 7.95419 17.0013 7.97355 16.9559C7.99938 16.9105 8.01874 16.8651 8.05102 16.8198C8.16078 16.5086 8.16078 16.2559 7.96063 16.1068C7.9219 16.0809 7.88316 16.0614 7.83796 16.042C7.81213 16.0355 7.77985 16.0225 7.75403 16.016C7.73466 16.0095 7.72175 16.0031 7.70238 15.9966C7.65719 15.9836 7.61199 15.9707 7.5668 15.9642C7.5216 15.9512 7.47641 15.9447 7.43122 15.9447C7.38602 15.9382 7.33437 15.9318 7.28918 15.9318C7.2569 15.9318 7.22461 15.9383 7.19233 15.9383C7.14068 15.9383 7.09549 15.9448 7.0503 15.9577C7.0051 15.9642 6.95991 15.9707 6.91471 15.9837C6.86952 15.9966 6.82433 16.0096 6.77913 16.029C6.73394 16.0485 6.6952 16.0679 6.65 16.0874C6.61127 16.1068 6.57253 16.1327 6.52734 16.1522C5.02302 17.1374 5.92045 19.4448 6.94699 20.1124C6.55962 20.1837 6.16579 20.268 6.05603 20.3523C6.04956 20.3588 6.04313 20.3652 6.04313 20.3652C6.32075 20.5337 6.61128 20.6763 6.91472 20.7995C7.32793 20.9356 7.76695 21.0587 7.96064 21.1106V21.1171C8.49651 21.2273 9.03884 21.2662 9.58763 21.2338C12.4478 21.0328 14.7914 18.8485 15.2175 15.9707C15.2304 16.029 15.2433 16.0809 15.2563 16.1392C15.2756 16.2559 15.3014 16.379 15.3144 16.5022V16.5087C15.3273 16.567 15.3337 16.6254 15.3402 16.6772V16.7031C15.3467 16.7615 15.3531 16.8198 15.3531 16.8717C15.3596 16.943 15.366 17.0143 15.366 17.0856V17.1893C15.366 17.2217 15.3725 17.2606 15.3725 17.293C15.3725 17.3319 15.366 17.3707 15.366 17.4096V17.5004C15.366 17.5458 15.3595 17.5846 15.3595 17.63C15.3595 17.6559 15.3595 17.6819 15.3531 17.7143C15.3531 17.7596 15.3466 17.805 15.3466 17.8569C15.3401 17.8763 15.3401 17.8958 15.3401 17.9152C15.3337 17.9671 15.3272 18.0124 15.3207 18.0643C15.3207 18.0837 15.3207 18.1032 15.3143 18.1226C15.3078 18.1874 15.2949 18.2458 15.2885 18.3106V18.3171V18.3236C15.2756 18.3819 15.2626 18.4467 15.2497 18.5051V18.5245C15.2368 18.5828 15.2239 18.6412 15.211 18.6995C15.211 18.706 15.2045 18.7189 15.2045 18.7254C15.1916 18.7838 15.1787 18.8421 15.1593 18.9004V18.9199C15.14 18.9847 15.1206 19.043 15.1077 19.1014C15.1012 19.1079 15.1012 19.1143 15.1012 19.1143C15.0818 19.1791 15.0625 19.244 15.0431 19.3088C15.0173 19.3736 14.9979 19.4319 14.9721 19.4967C14.9462 19.5616 14.9269 19.6264 14.9011 19.6847C14.8752 19.7495 14.8494 19.8079 14.8236 19.8727H14.8171C14.7913 19.931 14.7655 19.9958 14.7332 20.0542C14.7267 20.0736 14.7203 20.0866 14.7138 20.0995C14.7073 20.106 14.7073 20.1125 14.7009 20.119C14.2812 20.9681 13.6614 21.7134 12.8867 22.2968C12.835 22.3292 12.7834 22.3681 12.7317 22.407C12.7188 22.4199 12.6995 22.4264 12.6865 22.4394C12.6413 22.4718 12.5962 22.5042 12.5445 22.5366L12.5639 22.5755H12.5703C12.6607 22.5626 12.7511 22.5496 12.8415 22.5366H12.848C13.0158 22.5107 13.1837 22.4783 13.3516 22.4459C13.3968 22.4394 13.4484 22.4264 13.4936 22.4135C13.5259 22.407 13.5517 22.4005 13.584 22.394C13.6292 22.3875 13.6744 22.3746 13.7196 22.3681C13.7583 22.3551 13.797 22.3486 13.8358 22.3357C14.4814 22.1801 15.1077 21.9662 15.7081 21.7134C14.6816 23.1199 13.3064 24.2542 11.6987 24.9996C12.4412 24.9478 13.1837 24.8246 13.9003 24.6172C16.5022 23.8459 18.6909 22.0894 20.0015 19.7236C19.7368 21.2208 19.1428 22.6468 18.2648 23.8913C18.8911 23.4764 19.4657 22.9968 19.9886 22.4523C21.4348 20.9356 22.3839 19.0106 22.7067 16.943C22.9262 17.9671 22.9908 19.0236 22.894 20.0671C27.5554 13.5401 23.2813 6.77333 21.4929 4.99089C21.4865 4.97794 21.48 4.97145 21.48 4.95849C21.4736 4.96498 21.4736 4.96498 21.4736 4.97144C21.4736 4.96495 21.4736 4.96495 21.4671 4.95849C21.4671 5.03627 21.4606 5.11404 21.4542 5.19182C21.4348 5.3409 21.4155 5.48349 21.3896 5.62609C21.3574 5.76869 21.3186 5.91128 21.2799 6.05388C21.2347 6.18999 21.183 6.33258 21.1249 6.4687C21.0668 6.59833 21.0023 6.73444 20.9312 6.86408C20.8602 6.98723 20.7827 7.11686 20.6988 7.23353C20.6149 7.35668 20.5245 7.47335 20.4341 7.58353C20.3373 7.7002 20.234 7.80391 20.1307 7.90762C20.0661 7.96595 20.008 8.0178 19.9434 8.06965C19.8918 8.11503 19.8466 8.15392 19.7949 8.19929C19.6787 8.29003 19.5625 8.37429 19.4334 8.45207C19.3107 8.52985 19.1816 8.60763 19.0525 8.67245C18.9169 8.73726 18.7813 8.79559 18.6457 8.85393C18.5101 8.90578 18.3681 8.95115 18.226 8.99004C18.084 9.02893 17.9355 9.06134 17.7935 9.08727C17.645 9.1132 17.4965 9.12616 17.3545 9.13912C17.2511 9.14561 17.1479 9.15208 17.0445 9.15208C16.8961 9.15208 16.7476 9.13912 16.6055 9.12614C16.457 9.11319 16.3085 9.09373 16.1665 9.06132C16.018 9.03538 15.876 8.9965 15.7339 8.95113H15.7275C15.8695 8.93818 16.0115 8.9252 16.1536 8.89928C16.3021 8.87334 16.4441 8.84095 16.5861 8.80205C16.7282 8.76317 16.8702 8.71779 17.0058 8.66594C17.1478 8.61409 17.2834 8.54927 17.4126 8.48446C17.5481 8.41964 17.6708 8.34834 17.7999 8.27056C17.9226 8.1863 18.0453 8.10204 18.1615 8.0113C18.2777 7.92056 18.3874 7.82333 18.4908 7.71963C18.6005 7.6224 18.6974 7.51222 18.7942 7.40203C18.891 7.28536 18.9814 7.16869 19.0654 7.05202C19.0783 7.03258 19.0912 7.00665 19.1041 6.98721C19.1687 6.8835 19.2332 6.7798 19.2913 6.67609C19.3623 6.54646 19.4269 6.41682 19.485 6.28071C19.5431 6.1446 19.5948 6.00848 19.64 5.86589C19.6852 5.72977 19.7174 5.58718 19.7497 5.44459C19.7756 5.29551 19.8014 5.15291 19.8143 5.01032C19.8272 4.86124 19.8401 4.71216 19.8401 4.56957C19.8401 4.46586 19.8336 4.36216 19.8272 4.25845C19.8143 4.10938 19.7949 3.96678 19.7756 3.82418C19.7497 3.67511 19.7175 3.53251 19.6787 3.38991C19.6335 3.2538 19.5883 3.11121 19.5367 2.97509C19.485 2.83898 19.4205 2.70287 19.3559 2.57323C19.2849 2.4436 19.2139 2.31397 19.1364 2.19082C19.0525 2.06767 18.9685 1.951 18.8781 1.83433C18.7813 1.72414 18.6845 1.61396 18.5812 1.50377C18.5295 1.45192 18.4714 1.39358 18.4133 1.34173C18.1228 1.11487 17.8193 0.900978 17.5159 0.706531C17.4707 0.680595 17.4319 0.66116 17.3867 0.641714C17.1737 0.505602 16.9735 0.434266 16.7734 0.369452Z" fill="#E0234E"/>
</g>
<defs>
<clipPath id="clip0_749_45">
<rect width="25" height="25" fill="white"/>
</clipPath>
</defs>
</svg>
