<svg width="25" height="25" viewBox="0 0 25 25" fill="none" xmlns="http://www.w3.org/2000/svg">
<g clip-path="url(#clip0_751_74)">
<path d="M18.5539 23.4414C18.4609 23.4906 18.4687 23.5063 18.5578 23.461C18.5867 23.4492 18.6109 23.4328 18.632 23.4133C18.632 23.3969 18.632 23.3969 18.5539 23.4414ZM18.7414 23.3399C18.6969 23.3766 18.6969 23.3766 18.75 23.3524C18.7781 23.336 18.8031 23.3203 18.8031 23.3156C18.8031 23.2945 18.7906 23.2992 18.7414 23.3399ZM18.8633 23.2664C18.8188 23.3031 18.8188 23.3031 18.8719 23.2789C18.9008 23.2625 18.925 23.2453 18.925 23.2414C18.925 23.2219 18.9125 23.2258 18.8633 23.2664ZM18.9867 23.1938C18.9422 23.2305 18.9422 23.2305 18.9938 23.2055C19.0227 23.1899 19.0469 23.1735 19.0469 23.1688C19.0469 23.1492 19.0344 23.1531 18.9867 23.1938ZM19.1531 23.0836C19.068 23.1406 19.0383 23.1774 19.1164 23.1367C19.1687 23.1047 19.2578 23.0344 19.2422 23.0344C19.2086 23.0469 19.1805 23.068 19.1523 23.0836H19.1531ZM11.682 0.00861086C11.625 0.0125171 11.4539 0.0281421 11.3039 0.0406421C7.75078 0.362517 4.42656 2.27502 2.31953 5.22111C1.15469 6.83595 0.398438 8.71174 0.113281 10.6813C0.0125 11.3688 0 11.5719 0 12.5039C0 13.4352 0.0125 13.6352 0.113281 14.3227C0.79375 19.0188 4.13438 22.961 8.6625 24.4219C9.47734 24.682 10.3312 24.8617 11.3039 24.9719C11.682 25.0125 13.3172 25.0125 13.6953 24.9719C15.3766 24.7844 16.7961 24.3695 18.2008 23.6531C18.4164 23.5438 18.457 23.5149 18.4281 23.4906C17.7406 22.5836 17.0656 21.6758 16.3898 20.7602L14.3922 18.0625L11.8898 14.3555C11.0555 13.1149 10.218 11.8774 9.36719 10.6492C9.35859 10.6492 9.34766 12.2969 9.34297 14.3063C9.33437 17.8258 9.33437 17.9688 9.28984 18.05C9.24531 18.1477 9.17187 18.2289 9.07422 18.2742C8.99687 18.311 8.92734 18.3188 8.55781 18.3188H8.13516L8.025 18.25C7.95625 18.2055 7.89922 18.1438 7.8625 18.0711L7.80938 17.961L7.81328 13.0617L7.82188 8.16252L7.89922 8.06486C7.94844 8.0047 8.00938 7.95549 8.07813 7.91877C8.18047 7.86955 8.22109 7.86174 8.64375 7.86174C9.13984 7.86174 9.22187 7.88127 9.35234 8.02424C10.3648 9.53361 11.3742 11.0469 12.3672 12.5649C13.9914 15.0274 16.2086 18.3875 17.2984 20.036L19.2805 23.0352L19.3781 22.9703C20.3305 22.3352 21.1969 21.5789 21.9445 20.7164C23.5195 18.9133 24.5414 16.6953 24.8875 14.3281C24.9883 13.6406 25.0008 13.4367 25.0008 12.5055C25.0008 11.5735 24.9883 11.3742 24.8875 10.6867C24.207 5.99064 20.8664 2.04845 16.3383 0.586736C15.4914 0.318767 14.6203 0.135955 13.7383 0.0422046C13.5016 0.0179859 11.8859 -0.0109204 11.6828 0.0101734L11.682 0.00861086ZM16.7969 7.56877C16.9148 7.62502 17.0039 7.73127 17.0445 7.85314C17.0656 7.91877 17.0695 9.27736 17.0656 12.3375L17.057 16.7313L16.2844 15.5438L15.507 14.3555V11.1656C15.507 9.09767 15.5156 7.9383 15.5266 7.88127C15.5633 7.7508 15.6523 7.64142 15.7711 7.57267C15.868 7.52345 15.9055 7.51955 16.2922 7.51955C16.6539 7.51955 16.7156 7.52345 16.7969 7.56877Z" fill="black"/>
</g>
<defs>
<clipPath id="clip0_751_74">
<rect width="25" height="25" fill="white"/>
</clipPath>
</defs>
</svg>
