<svg width="27" height="25" viewBox="0 0 27 25" fill="none" xmlns="http://www.w3.org/2000/svg">
<path d="M13.3891 24.9536C12.9948 24.9536 12.6268 24.8619 12.2851 24.7014L8.78887 22.8904C8.26312 22.6382 8.52599 22.5465 8.68372 22.5007C9.39347 22.2943 9.52491 22.2485 10.2609 21.8817C10.3398 21.8358 10.445 21.8588 10.5238 21.9046L13.2051 23.303C13.3103 23.3489 13.4417 23.3489 13.5206 23.303L24.0091 18.0074C24.1143 17.9616 24.1669 17.8699 24.1669 17.7552V7.18692C24.1669 7.07229 24.1143 6.98059 24.0091 6.93474L13.5206 1.66205C13.4154 1.6162 13.284 1.6162 13.2051 1.66205L2.71653 6.93474C2.61138 6.98059 2.5588 7.09522 2.5588 7.18692V17.7552C2.5588 17.8469 2.61138 17.9616 2.71653 18.0074L5.58183 19.4517C7.13277 20.1394 8.1054 19.337 8.1054 18.5347V8.10391C8.1054 7.96636 8.23683 7.82881 8.42085 7.82881H9.76149C9.91922 7.82881 10.0769 7.94343 10.0769 8.10391V18.5347C10.0769 20.3457 8.94659 21.4003 6.97505 21.4003C6.37045 21.4003 5.89728 21.4003 4.55663 20.8272L1.79648 19.4517C1.11301 19.1078 0.692413 18.4659 0.692413 17.7782V7.20984C0.692413 6.5221 1.11301 5.8802 1.79648 5.53633L12.2851 0.24071C12.9422 -0.0802367 13.836 -0.0802367 14.4932 0.24071L24.9818 5.53633C25.6652 5.8802 26.0858 6.5221 26.0858 7.20984V17.7782C26.0858 18.4659 25.6652 19.1078 24.9818 19.4517L14.4932 24.7473C14.1515 24.8848 13.7571 24.9536 13.3891 24.9536ZM16.6224 17.6865C12.0222 17.6865 11.0759 15.8525 11.0759 14.2936C11.0759 14.156 11.2073 14.0185 11.3913 14.0185H12.7582C12.916 14.0185 13.0474 14.1102 13.0474 14.2477C13.2577 15.4628 13.8623 16.0588 16.6487 16.0588C18.8569 16.0588 19.8032 15.6232 19.8032 14.5916C19.8032 13.9956 19.5403 13.56 16.0967 13.262C13.2314 13.0098 11.4439 12.4596 11.4439 10.4652C11.4439 8.60825 13.2314 7.50786 16.2281 7.50786C19.5929 7.50786 21.249 8.51655 21.4593 10.7173C21.4593 10.7861 21.433 10.8549 21.3804 10.9237C21.3279 10.9695 21.249 11.0154 21.1701 11.0154H19.8032C19.6718 11.0154 19.5403 10.9237 19.514 10.809C19.1986 9.54817 18.3837 9.13552 16.2281 9.13552C13.8097 9.13552 13.5206 9.86911 13.5206 10.4193C13.5206 11.0841 13.8623 11.2905 17.1219 11.6572C20.3552 12.024 21.8799 12.5513 21.8799 14.5228C21.8536 16.5402 19.9609 17.6865 16.6224 17.6865Z" fill="#539E43"/>
</svg>
