<svg width="26" height="25" viewBox="0 0 26 25" fill="none" xmlns="http://www.w3.org/2000/svg">
<path d="M23.0705 22.7H2.67055V2.3H23.0705V22.7ZM3.67055 3.3V21.7H22.0705V3.3H3.67055Z" fill="#0288D1"/>
<path d="M17.8605 11.8925C17.7432 11.8921 17.6354 11.8951 17.5548 11.9027C16.9252 11.9575 16.337 12.2325 15.9345 12.6604C15.7328 12.8748 15.5501 13.1822 15.4609 13.4573C15.3625 13.7606 15.3632 13.7548 15.3637 14.2298C15.3642 14.8368 15.3951 14.9871 15.6016 15.3908C15.8092 15.7967 16.1256 16.1282 16.582 16.4183C16.782 16.5454 17.2942 16.8008 17.7125 16.982C18.6231 17.3765 18.9111 17.5584 19.0448 17.8238L19.1 17.9333V18.1628C19.1 18.3841 19.0991 18.3955 19.0541 18.4868C18.9514 18.698 18.7089 18.8709 18.3985 18.9545C18.2811 18.986 18.2273 18.9905 17.9649 18.9906C17.7081 18.9906 17.6458 18.9853 17.5281 18.956C17.3226 18.904 17.1494 18.8321 17.0141 18.7424C16.8483 18.6327 16.5225 18.3037 16.3899 18.1123C16.3314 18.0278 16.2727 17.9585 16.2595 17.9585C16.2377 17.9585 15.1141 18.6009 14.918 18.7254C14.8519 18.7674 14.8352 18.7866 14.8352 18.8202C14.8352 18.89 15.0977 19.2868 15.3033 19.5278C15.7223 20.0189 16.5624 20.4519 17.3066 20.5603C17.6008 20.6031 18.0895 20.617 18.4309 20.5918C18.6546 20.5754 18.8807 20.533 19.1236 20.4617C20.0026 20.2039 20.6024 19.6561 20.8246 18.908C20.9153 18.6029 20.9519 18.2275 20.922 17.9109C20.8606 17.2612 20.6609 16.8019 20.2667 16.404C19.9006 16.0346 19.3981 15.737 18.4062 15.302C17.5463 14.925 17.3218 14.7785 17.1979 14.5137C17.0909 14.285 17.1113 13.9703 17.2459 13.7748C17.4034 13.5459 17.7249 13.4328 18.0834 13.4803C18.4168 13.5243 18.6324 13.6564 18.8437 13.9459C18.9534 14.0962 19.0295 14.1745 19.066 14.1745C19.102 14.1745 19.2571 14.0788 19.7386 13.7592C20.2287 13.4339 20.3828 13.3235 20.3933 13.2902C20.4097 13.2386 20.3329 13.1179 20.1082 12.8423C19.6571 12.2889 19.1267 11.9952 18.4457 11.9215C18.2785 11.9033 18.0562 11.8933 17.8606 11.8927L17.8605 11.8925ZM12.443 11.9864C12.0388 11.9861 11.577 11.9864 11.0639 11.9869C8.40294 11.9895 7.78534 11.9939 7.76869 12.011C7.75249 12.0272 7.74829 12.1904 7.74829 12.7993V13.5672L8.95829 13.5716L10.1684 13.5759L10.1686 17.0011C10.1687 18.8849 10.173 20.4422 10.1789 20.4617L10.188 20.4973H11.0674C11.8547 20.4973 11.9477 20.4955 11.9563 20.4724C11.9616 20.4586 11.9654 18.9014 11.9654 17.0118V13.5761L13.1755 13.5717L14.3855 13.5673V12.7902C14.3855 12.1167 14.3829 12.0112 14.3619 11.9981C14.3508 11.9911 13.6555 11.9869 12.4427 11.9863L12.443 11.9864Z" fill="#0288D1"/>
</svg>
